<svg width="26" height="31" viewBox="0 0 26 31" fill="none" xmlns="http://www.w3.org/2000/svg">
<circle cx="17" cy="9.14697" r="9" fill="#DAF14F"/>
<path d="M5.888 30.8211L4.512 30.8531C4.10667 30.8531 3.904 30.7144 3.904 30.4371C3.904 30.3731 4.13867 30.0424 4.608 29.4451C5.09867 28.8478 5.58933 28.1118 6.08 27.2371C6.57067 26.3624 6.816 25.5838 6.816 24.9011C6.816 24.2398 6.208 22.5864 4.992 19.9411C3.776 17.2958 2.72 15.1304 1.824 13.4451C1.58933 13.0184 1.344 12.6878 1.088 12.4531C0.853333 12.2184 0.661333 12.0904 0.512 12.0691C0.170667 12.0264 0 11.8664 0 11.5891C0 11.3118 0.213333 11.1731 0.64 11.1731L4.064 11.2371L5.888 11.1731C6.03733 11.1731 6.16533 11.2158 6.272 11.3011C6.4 11.3651 6.464 11.4398 6.464 11.5251C6.464 11.9091 6.208 12.1011 5.696 12.1011H5.216C4.87467 12.1011 4.704 12.3678 4.704 12.9011C4.704 13.5411 5.26933 15.0771 6.4 17.5091C6.57067 17.8718 6.82667 18.4478 7.168 19.2371C7.808 20.6878 8.192 21.4131 8.32 21.4131C8.448 21.4131 8.93867 20.1864 9.792 17.7331C10.6667 15.2798 11.104 13.8184 11.104 13.3491C11.104 12.8798 10.9973 12.5491 10.784 12.3571C10.592 12.1651 10.368 12.0691 10.112 12.0691C9.45067 12.1118 9.12 11.9304 9.12 11.5251C9.12 11.2691 9.32267 11.1411 9.728 11.1411L11.9302 11.1731L14.8599 11.2411C16.3599 11.2411 16.0083 11.2478 16.0083 11.5251C16.0083 11.7384 14.496 11.9304 14.112 12.0371C13.7493 12.1224 13.504 12.2504 13.376 12.4211C13.0347 12.9118 12.4587 14.2558 11.648 16.4531L8.8 24.0371C8.56533 24.6558 8.33067 25.2851 8.096 25.9251C7.86133 26.5864 7.66933 27.1198 7.52 27.5251C7.37067 27.9304 7.22133 28.3358 7.072 28.7411C6.92267 29.1464 6.80533 29.4558 6.72 29.6691C6.63467 29.9038 6.54933 30.1171 6.464 30.3091C6.29333 30.6504 6.13333 30.8211 5.984 30.8211H5.888Z" fill="#5F5A42"/>
<path d="M15.7479 30.8211L14.3719 30.8531C13.9665 30.8531 13.7639 30.7144 13.7639 30.4371C13.7639 30.3731 13.9985 30.0424 14.4679 29.4451C14.9585 28.8478 15.4492 28.1118 15.9399 27.2371C16.4305 26.3624 16.6759 25.5838 16.6759 24.9011C16.6759 24.2398 16.0679 22.5864 14.8519 19.9411C13.6359 17.2958 12.5799 15.1304 11.6839 13.4451C11.4492 13.0184 11.2039 12.6878 10.9479 12.4531C10.7132 12.2184 10.5212 12.0904 10.3719 12.0691C10.0305 12.0264 9.85986 11.8664 9.85986 11.5891C9.85986 11.3118 10.0732 11.1731 10.4999 11.1731C10.4999 11.1731 12.3599 11.2411 13.3599 11.2411C14.3599 11.2411 15.7479 11.1731 15.7479 11.1731C15.9458 11.1708 16.0825 11.2098 16.1646 11.2645C16.2836 11.3439 16.3239 11.4398 16.3239 11.5251C16.3239 11.9091 16.0679 12.1011 15.5559 12.1011H15.0759C14.7345 12.1011 14.5639 12.3678 14.5639 12.9011C14.5639 13.5411 15.1292 15.0771 16.2599 17.5091C16.4305 17.8718 16.6865 18.4478 17.0279 19.2371C17.6679 20.6878 18.0519 21.4131 18.1799 21.4131C18.3079 21.4131 18.7985 20.1864 19.6519 17.7331C20.5265 15.2798 20.9639 13.8184 20.9639 13.3491C20.9639 12.8798 20.8572 12.5491 20.6439 12.3571C20.4519 12.1651 20.2279 12.0691 19.9719 12.0691C19.3105 12.1118 18.9799 11.9304 18.9799 11.5251C18.9799 11.2691 19.1825 11.1411 19.5879 11.1411L21.8919 11.1731L23.8759 11.1411C24.3239 11.1411 24.5479 11.2798 24.5479 11.5571C24.5479 11.7704 24.3559 11.9304 23.9719 12.0371C23.6092 12.1224 23.3639 12.2504 23.2359 12.4211C22.8945 12.9118 22.3185 14.2558 21.5079 16.4531L18.6599 24.0371C18.4252 24.6558 18.1905 25.2851 17.9559 25.9251C17.7212 26.5864 17.5292 27.1198 17.3799 27.5251C17.2305 27.9304 17.0812 28.3358 16.9319 28.7411C16.7825 29.1464 16.6652 29.4558 16.5799 29.6691C16.4945 29.9038 16.4092 30.1171 16.3239 30.3091C16.1532 30.6504 15.9932 30.8211 15.8439 30.8211H15.7479Z" fill="#5F5A42"/>
</svg>
