<svg width="28" height="46" viewBox="0 0 28 46" fill="none" xmlns="http://www.w3.org/2000/svg">
<circle cx="17" cy="16" r="9" fill="#DAF14F"/>
<path d="M6.528 37.08L5.152 37.112C4.74667 37.112 4.544 36.9733 4.544 36.696C4.544 36.632 4.77867 36.3013 5.248 35.704C5.73867 35.1067 6.22933 34.3707 6.72 33.496C7.21067 32.6213 7.456 31.8427 7.456 31.16C7.456 30.4987 6.848 28.8453 5.632 26.2C4.416 23.5547 3.36 21.3893 2.464 19.704C2.22933 19.2773 1.984 18.9467 1.728 18.712C1.49333 18.4773 1.30133 18.3493 1.152 18.328C0.810667 18.2853 0.64 18.1253 0.64 17.848C0.64 17.5707 0.853333 17.432 1.28 17.432L4.704 17.496L6.528 17.432C6.67733 17.432 6.80533 17.4747 6.912 17.56C7.04 17.624 7.104 17.6987 7.104 17.784C7.104 18.168 6.848 18.36 6.336 18.36H5.856C5.51467 18.36 5.344 18.6267 5.344 19.16C5.344 19.8 5.90933 21.336 7.04 23.768C7.21067 24.1307 7.46667 24.7067 7.808 25.496C8.448 26.9467 8.832 27.672 8.96 27.672C9.088 27.672 9.57867 26.4453 10.432 23.992C11.3067 21.5387 11.744 20.0773 11.744 19.608C11.744 19.1387 11.6373 18.808 11.424 18.616C11.232 18.424 11.008 18.328 10.752 18.328C10.0907 18.3707 9.76 18.1893 9.76 17.784C9.76 17.528 9.96267 17.4 10.368 17.4L12.672 17.432L14.656 17.4C15.104 17.4 15.328 17.5387 15.328 17.816C15.328 18.0293 15.136 18.1893 14.752 18.296C14.3893 18.3813 14.144 18.5093 14.016 18.68C13.6747 19.1707 13.0987 20.5147 12.288 22.712L9.44 30.296C9.20533 30.9147 8.97067 31.544 8.736 32.184C8.50133 32.8453 8.30933 33.3787 8.16 33.784C8.01067 34.1893 7.86133 34.5947 7.712 35C7.56267 35.4053 7.44533 35.7147 7.36 35.928C7.27467 36.1627 7.18933 36.376 7.104 36.568C6.93333 36.9093 6.77333 37.08 6.624 37.08H6.528ZM17.6655 37.08L16.2895 37.112C15.8842 37.112 15.6815 36.9733 15.6815 36.696C15.6815 36.632 15.9162 36.3013 16.3855 35.704C16.8762 35.1067 17.3668 34.3707 17.8575 33.496C18.3482 32.6213 18.5935 31.8427 18.5935 31.16C18.5935 30.4987 17.9855 28.8453 16.7695 26.2C15.5535 23.5547 14.4975 21.3893 13.6015 19.704C13.3668 19.2773 13.1215 18.9467 12.8655 18.712C12.6308 18.4773 12.4388 18.3493 12.2895 18.328C11.9482 18.2853 11.7775 18.1253 11.7775 17.848C11.7775 17.5707 11.9908 17.432 12.4175 17.432L15.8415 17.496L17.6655 17.432C17.8148 17.432 17.9428 17.4747 18.0495 17.56C18.1775 17.624 18.2415 17.6987 18.2415 17.784C18.2415 18.168 17.9855 18.36 17.4735 18.36H16.9935C16.6522 18.36 16.4815 18.6267 16.4815 19.16C16.4815 19.8 17.0468 21.336 18.1775 23.768C18.3482 24.1307 18.6042 24.7067 18.9455 25.496C19.5855 26.9467 19.9695 27.672 20.0975 27.672C20.2255 27.672 20.7162 26.4453 21.5695 23.992C22.4442 21.5387 22.8815 20.0773 22.8815 19.608C22.8815 19.1387 22.7748 18.808 22.5615 18.616C22.3695 18.424 22.1455 18.328 21.8895 18.328C21.2282 18.3707 20.8975 18.1893 20.8975 17.784C20.8975 17.528 21.1002 17.4 21.5055 17.4L23.8095 17.432L25.7935 17.4C26.2415 17.4 26.4655 17.5387 26.4655 17.816C26.4655 18.0293 26.2735 18.1893 25.8895 18.296C25.5268 18.3813 25.2815 18.5093 25.1535 18.68C24.8122 19.1707 24.2362 20.5147 23.4255 22.712L20.5775 30.296C20.3428 30.9147 20.1082 31.544 19.8735 32.184C19.6388 32.8453 19.4468 33.3787 19.2975 33.784C19.1482 34.1893 18.9988 34.5947 18.8495 35C18.7002 35.4053 18.5828 35.7147 18.4975 35.928C18.4122 36.1627 18.3268 36.376 18.2415 36.568C18.0708 36.9093 17.9108 37.08 17.7615 37.08H17.6655Z" fill="#5F5A42"/>
</svg>
